<svg xmlns="http://www.w3.org/2000/svg" version="1.1" xmlns:xlink="http://www.w3.org/1999/xlink" xmlns:svgjs="http://svgjs.dev/svgjs" width="100%" height="100%" viewBox="0 0 1000 600"><rect width="1000" height="600" x="0" y="0" fill="#191919"/><g><rect width="333.3333333333333" height="333.3333333333333" rx="13.333333333333334" ry="13.333333333333334" y="252.81700365723046" fill="#b88746" transform="matrix(0.5420765142188341,0,0,0.5420765142188341,0,72.60776800481774)" x="230.59475708007812"/><path d="M356.666182355513 494.4836728390784L346.36856361965823 494.4836728390784Q344.0173732146509 494.4836728390784 342.7376113486343 493.08486335761836Q341.4280875787568 491.6860538761583 341.4280875787568 489.54319679817695L341.4280875787568 489.54319679817695L341.4280875787568 349.6324867483119Q341.4280875787568 347.2812963433046 342.7376113486343 345.88248686184454Q344.0173732146509 344.4836773803845 346.36856361965823 344.4836773803845L346.36856361965823 344.4836773803845L356.2197537976002 344.4836773803845Q358.8090394334944 344.4836773803845 360.088801299511 345.67415353481863Q361.3685631655276 346.8348677853918 361.5768964925536 347.4896296703306L361.5768964925536 347.4896296703306L432.73760862385063 456.775340647379L432.73760862385063 349.6324867483119Q432.73760862385063 347.2812963433046 434.01737048986723 345.88248686184454Q435.2971323558839 344.4836773803845 437.6483227608912 344.4836773803845L437.6483227608912 344.4836773803845L447.94594149674595 344.4836773803845Q450.2971319017533 344.4836773803845 451.6959413832133 345.88248686184454Q453.09475086467336 347.2812963433046 453.09475086467336 349.6324867483119L453.09475086467336 349.6324867483119L453.09475086467336 489.33486347115104Q453.09475086467336 491.47772054913236 451.6959413832133 492.9955776460358Q450.2971319017533 494.4836728390784 448.1542748237719 494.4836728390784L448.1542748237719 494.4836728390784L437.85665608791714 494.4836728390784Q435.50546568290986 494.4836728390784 434.3447514323366 493.20391097306174Q433.1542752779025 491.92414910704514 432.73760862385063 491.47772054913236L432.73760862385063 491.47772054913236L361.7852298195795 383.2634381110746L361.7852298195795 489.54319679817695Q361.7852298195795 491.6860538761583 360.4161822419803 493.08486335761836Q359.0173727605203 494.4836728390784 356.666182355513 494.4836728390784L356.666182355513 494.4836728390784Z " fill="#191919" transform="matrix(0.5420765142188341,0,0,0.5420765142188341,0,72.60776800481774)"/><path d="M661.9123157167143 492.4233870890098L652.0115148704657 492.4233870890098Q649.7509273940101 492.4233870890098 648.5204810460659 491.0784806156754Q647.2614196667741 489.73357414234107 647.2614196667741 487.67329188531824L647.2614196667741 487.67329188531824L647.2614196667741 353.1540295205364Q647.2614196667741 350.8934420440808 648.5204810460659 349.5485355707465Q649.7509273940101 348.20362909741215 652.0115148704657 348.20362909741215L652.0115148704657 348.20362909741215L661.4830902465012 348.20362909741215Q663.972597973737 348.20362909741215 665.2030443216813 349.3482303513137Q666.4334906696254 350.4642165738677 666.6337958890582 351.0937472635136L666.6337958890582 351.0937472635136L735.0523358410245 456.16814237167756L735.0523358410245 353.1540295205364Q735.0523358410245 350.8934420440808 736.2827821889687 349.5485355707465Q737.5132285369128 348.20362909741215 739.7738160133684 348.20362909741215L739.7738160133684 348.20362909741215L749.674616859617 348.20362909741215Q751.9352043360726 348.20362909741215 753.280110809407 349.5485355707465Q754.6250172827413 350.8934420440808 754.6250172827413 353.1540295205364L754.6250172827413 353.1540295205364L754.6250172827413 487.4729866658855Q754.6250172827413 489.5332689229083 753.280110809407 490.9926355216328Q751.9352043360726 492.4233870890098 749.8749220790498 492.4233870890098L749.8749220790498 492.4233870890098L739.9741212328013 492.4233870890098Q737.7135337563457 492.4233870890098 736.5975475337916 491.19294074106557Q735.45294627989 489.96249439312135 735.0523358410245 489.5332689229083L735.0523358410245 489.5332689229083L666.834101108491 385.4890149432557L666.834101108491 487.67329188531824Q666.834101108491 489.73357414234107 665.5178096665043 491.0784806156754Q664.1729031931699 492.4233870890098 661.9123157167143 492.4233870890098L661.9123157167143 492.4233870890098ZM817.6639313413702 494.48366934603257L817.6639313413702 494.48366934603257Q807.362520056256 494.48366934603257 798.921085808732 490.3631048319869Q790.4510365298604 486.2425403179413 785.3003308873033 479.2318576377942Q780.1496252447463 472.22117495764707 780.1496252447463 463.37913027125745L780.1496252447463 463.37913027125745Q780.1496252447463 449.15745969153045 791.7100979091522 440.7160254440064Q803.2419555422105 432.27459119648233 821.7844958554158 429.58477824981367L821.7844958554158 429.58477824981367L852.4884244913254 425.2639085163352L852.4884244913254 419.28336696469955Q852.4884244913254 409.382566118451 846.8226482845126 403.8312500370283Q841.1568720776999 398.27993395560577 828.3659530653499 398.27993395560577L828.3659530653499 398.27993395560577Q819.29498812818 398.27993395560577 813.5433668273246 401.9712729994383Q807.7631304951217 405.6912270746184 805.5025430186661 411.4428483754738L805.5025430186661 411.4428483754738Q804.2720966707218 414.533271761008 801.1816732851876 414.533271761008L801.1816732851876 414.533271761008L791.9104031285849 414.533271761008Q789.6498156521293 414.533271761008 788.5052143982277 413.2169803190212Q787.3606131443262 411.8720738456869 787.3606131443262 410.0120968080968L787.3606131443262 410.0120968080968Q787.3606131443262 406.9216734225626 789.7356607461719 402.4004984696514Q792.1107083480176 397.85070848539266 797.0611087711419 393.5298387519142Q802.0115091942662 389.2089690184358 809.7375676581019 386.2043907269442Q817.4636261219374 383.22842746680016 828.5662582847826 383.22842746680016L828.5662582847826 383.22842746680016Q840.9279518269195 383.22842746680016 849.3980011057912 386.43331097772455Q857.8394353533153 389.6095794573014 862.6753756510494 394.9605903192912Q867.5113159487835 400.34021621262855 869.6860583311965 407.1219786419954Q871.8321856822619 413.9323561027097 871.8321856822619 420.9430387828568L871.8321856822619 420.9430387828568L871.8321856822619 487.67329188531824Q871.8321856822619 489.73357414234107 870.5158942402751 491.0784806156754Q869.1709877669408 492.4233870890098 867.1107055099179 492.4233870890098L867.1107055099179 492.4233870890098L857.6391301338824 492.4233870890098Q855.3499276260793 492.4233870890098 854.1194812781351 491.0784806156754Q852.889034930191 489.73357414234107 852.889034930191 487.67329188531824L852.889034930191 487.67329188531824L852.889034930191 478.8312471989286Q850.1992219835223 482.5225862427612 845.6780470306111 486.1280801925511Q841.1568720776999 489.73357414234107 834.3464946169855 492.10862174418685Q827.5361171562713 494.48366934603257 817.6639313413702 494.48366934603257ZM821.9848010748485 479.0315524183614L821.9848010748485 479.0315524183614Q830.4262353223727 479.0315524183614 837.4369180025197 475.42605846857145Q844.4476006826669 471.8205645187815 848.4537050713224 464.2089661803361Q852.4884244913254 456.5687528105431 852.4884244913254 445.03689517748484L852.4884244913254 445.03689517748484L852.4884244913254 439.2566588452819L828.5662582847826 442.7763077010292Q813.9439772661901 444.83658995805206 806.5326841471774 449.67253025578617Q799.1213910281648 454.5084705535203 799.1213910281648 461.91976367253295L799.1213910281648 461.91976367253295Q799.1213910281648 467.7000000047359 802.526579758522 471.5057991739586Q805.9031534575315 475.3115983431813 811.1683192254789 477.17157538077134Q816.433484993426 479.0315524183614 821.9848010748485 479.0315524183614ZM957.5628195994894 492.4233870890098L943.3411490197624 492.4233870890098Q931.8092913867041 492.4233870890098 924.5983034871242 487.9880572301412Q917.3873155875443 483.55272737127257 914.0679719512298 475.42605846857145Q910.7772433462628 467.29938956587034 910.7772433462628 456.16814237167756L910.7772433462628 456.16814237167756L910.7772433462628 401.77096778000555L894.7242107602933 401.77096778000555Q892.6639285032704 401.77096778000555 891.3190220299361 400.42606130667116Q889.9741155566018 399.0811548333369 889.9741155566018 397.020872576314L889.9741155566018 397.020872576314L889.9741155566018 390.03880492751443Q889.9741155566018 387.97852267049166 891.3190220299361 386.63361619715727Q892.6639285032704 385.28870972382293 894.7242107602933 385.28870972382293L894.7242107602933 385.28870972382293L910.7772433462628 385.28870972382293L910.7772433462628 350.8934420440808Q910.7772433462628 348.833159787058 912.1221498195971 347.48825331372365Q913.4670562929315 346.1433468403893 915.5273385499543 346.1433468403893L915.5273385499543 346.1433468403893L925.1992191454226 346.1433468403893Q927.2595014024454 346.1433468403893 928.6044078757798 347.48825331372365Q929.949314349114 348.833159787058 929.949314349114 350.8934420440808L929.949314349114 350.8934420440808L929.949314349114 385.28870972382293L955.5025373424667 385.28870972382293Q957.7631248189222 385.28870972382293 958.9935711668663 386.63361619715727Q960.2240175148105 387.97852267049166 960.2240175148105 390.03880492751443L960.2240175148105 390.03880492751443L960.2240175148105 397.020872576314Q960.2240175148105 399.0811548333369 958.9935711668663 400.42606130667116Q957.7631248189222 401.77096778000555 955.5025373424667 401.77096778000555L955.5025373424667 401.77096778000555L929.949314349114 401.77096778000555L929.949314349114 454.70877577295306Q929.949314349114 464.40927139976884 933.2400429540811 469.96058748119145Q936.530771559048 475.5405185939616 944.9722058065722 475.5405185939616L944.9722058065722 475.5405185939616L957.5628195994894 475.5405185939616Q959.6231018565122 475.5405185939616 960.939393298499 476.85681003594846Q962.2842997718333 478.20171650928273 962.2842997718333 480.2619987663056L962.2842997718333 480.2619987663056L962.2842997718333 487.67329188531824Q962.2842997718333 489.73357414234107 960.939393298499 491.0784806156754Q959.6231018565122 492.4233870890098 957.5628195994894 492.4233870890098L957.5628195994894 492.4233870890098ZM1022.0324852254952 494.48366934603257L1022.0324852254952 494.48366934603257Q1008.8409557742797 494.48366934603257 999.6841457430671 488.61758791978707Q990.5273357118546 482.7515064935415 985.777240508163 472.22117495764707Q981.0271453044716 461.7194584531002 981.0271453044716 448.127318563019L981.0271453044716 448.127318563019L981.0271453044716 390.03880492751443Q981.0271453044716 387.97852267049166 982.3720517778058 386.63361619715727Q983.7169582511402 385.28870972382293 985.777240508163 385.28870972382293L985.777240508163 385.28870972382293L996.0786517932772 385.28870972382293Q998.1389340503 385.28870972382293 999.4838405236344 386.63361619715727Q1000.8287469969687 387.97852267049166 1000.8287469969687 390.03880492751443L1000.8287469969687 390.03880492751443L1000.8287469969687 447.0971774345076Q1000.8287469969687 477.8011060704172 1027.6124163382653 477.8011060704172L1027.6124163382653 477.8011060704172Q1040.374720319268 477.8011060704172 1048.1007787831036 469.64582213636857Q1055.826837246939 461.5191532336674 1055.826837246939 447.0971774345076L1055.826837246939 447.0971774345076L1055.826837246939 390.03880492751443Q1055.826837246939 387.97852267049166 1057.1717437202733 386.63361619715727Q1058.5166501936078 385.28870972382293 1060.5769324506305 385.28870972382293L1060.5769324506305 385.28870972382293L1070.8783437357447 385.28870972382293Q1072.9386259927676 385.28870972382293 1074.1690723407116 386.63361619715727Q1075.399518688656 387.97852267049166 1075.399518688656 390.03880492751443L1075.399518688656 390.03880492751443L1075.399518688656 487.67329188531824Q1075.399518688656 489.73357414234107 1074.1690723407116 491.0784806156754Q1072.9386259927676 492.4233870890098 1070.8783437357447 492.4233870890098L1070.8783437357447 492.4233870890098L1061.1778481089289 492.4233870890098Q1059.117565851906 492.4233870890098 1057.7726593785717 491.0784806156754Q1056.456367936585 489.73357414234107 1056.456367936585 487.67329188531824L1056.456367936585 487.67329188531824L1056.456367936585 478.63094197949584Q1050.8764368238149 485.84192987907574 1042.9500731405465 490.1627996125542Q1035.023709457278 494.48366934603257 1022.0324852254952 494.48366934603257ZM1120.9260335625909 492.4233870890098L1110.8249274969094 492.4233870890098Q1108.7646452398865 492.4233870890098 1107.4483537978997 491.0784806156754Q1106.1034473245654 489.73357414234107 1106.1034473245654 487.67329188531824L1106.1034473245654 487.67329188531824L1106.1034473245654 390.2391101469472Q1106.1034473245654 388.1788278899244 1107.4483537978997 386.71946129119993Q1108.7646452398865 385.28870972382293 1110.8249274969094 385.28870972382293L1110.8249274969094 385.28870972382293L1120.3251179042925 385.28870972382293Q1122.3854001613154 385.28870972382293 1123.8161517286921 386.71946129119993Q1125.2469032960694 388.1788278899244 1125.2469032960694 390.2391101469472L1125.2469032960694 390.2391101469472L1125.2469032960694 399.31007508411716Q1129.3674678101147 392.29939240397005 1136.5784557096947 388.7797435482227Q1143.7894436092747 385.28870972382293 1154.0908548943885 385.28870972382293L1154.0908548943885 385.28870972382293L1162.1316787030473 385.28870972382293Q1164.19196096007 385.28870972382293 1165.5368674334045 386.63361619715727Q1166.8817739067388 387.97852267049166 1166.8817739067388 390.03880492751443L1166.8817739067388 390.03880492751443L1166.8817739067388 398.48023917503855Q1166.8817739067388 400.5405214320613 1165.5368674334045 401.77096778000555Q1164.19196096007 403.0014141279497 1162.1316787030473 403.0014141279497L1162.1316787030473 403.0014141279497L1149.7699851609102 403.0014141279497Q1138.6387379667176 403.0014141279497 1132.2575859762164 409.4970262438411Q1125.876433985715 415.9926383597325 1125.876433985715 427.1238855539253L1125.876433985715 427.1238855539253L1125.876433985715 487.67329188531824Q1125.876433985715 489.73357414234107 1124.445682418338 491.0784806156754Q1122.9863158196135 492.4233870890098 1120.9260335625909 492.4233870890098L1120.9260335625909 492.4233870890098ZM1199.0164541100253 492.4233870890098L1189.1156532637767 492.4233870890098Q1187.0553710067538 492.4233870890098 1185.739079564767 491.0784806156754Q1184.3941730914325 489.73357414234107 1184.3941730914325 487.67329188531824L1184.3941730914325 487.67329188531824L1184.3941730914325 390.03880492751443Q1184.3941730914325 387.97852267049166 1185.739079564767 386.63361619715727Q1187.0553710067538 385.28870972382293 1189.1156532637767 385.28870972382293L1189.1156532637767 385.28870972382293L1199.0164541100253 385.28870972382293Q1201.076736367048 385.28870972382293 1202.4216428403824 386.63361619715727Q1203.7665493137167 387.97852267049166 1203.7665493137167 390.03880492751443L1203.7665493137167 390.03880492751443L1203.7665493137167 487.67329188531824Q1203.7665493137167 489.73357414234107 1202.4216428403824 491.0784806156754Q1201.076736367048 492.4233870890098 1199.0164541100253 492.4233870890098L1199.0164541100253 492.4233870890098ZM1200.4472056774023 365.31541784324054L1187.484596476967 365.31541784324054Q1185.4243142199443 365.31541784324054 1184.0794077466098 363.97051136990626Q1182.7345012732753 362.6256048965719 1182.7345012732753 360.5653226395491L1182.7345012732753 360.5653226395491L1182.7345012732753 349.4340754453563Q1182.7345012732753 347.3737931883335 1184.0794077466098 345.94304162095654Q1185.4243142199443 344.48367502223203 1187.484596476967 344.48367502223203L1187.484596476967 344.48367502223203L1200.4472056774023 344.48367502223203Q1202.5074879344252 344.48367502223203 1203.9668545331497 345.94304162095654Q1205.3976061005264 347.3737931883335 1205.3976061005264 349.4340754453563L1205.3976061005264 349.4340754453563L1205.3976061005264 360.5653226395491Q1205.3976061005264 362.6256048965719 1203.9668545331497 363.97051136990626Q1202.5074879344252 365.31541784324054 1200.4472056774023 365.31541784324054L1200.4472056774023 365.31541784324054ZM1271.326638325257 494.48366934603257L1271.326638325257 494.48366934603257Q1259.7947806921986 494.48366934603257 1251.5536516641073 491.5935511799311Q1243.312522636016 488.7034330138297 1238.1618169934588 484.582868499784Q1233.011111350902 480.46230398573834 1230.4357585296234 476.3417394716927Q1227.8604057083448 472.22117495764707 1227.6601004889121 469.7602822617587L1227.6601004889121 469.7602822617587Q1227.4597952694794 467.4996947853031 1229.090852056289 466.2692484373589Q1230.7505238744461 465.0101870580672 1232.381580661256 465.0101870580672L1232.381580661256 465.0101870580672L1241.6528508178587 465.0101870580672Q1242.6829919463703 465.0101870580672 1243.4269827614062 465.3249524028901Q1244.1423585450946 465.63971774771306 1245.3728048930388 467.07046931509L1245.3728048930388 467.07046931509Q1248.0626178397074 469.96058748119145 1251.3533464446746 472.8507056472929Q1254.6440750496415 475.7408238133944 1259.4800153473755 477.60080085098446Q1264.3159556451099 479.43216285722696 1271.5269435446896 479.43216285722696L1271.5269435446896 479.43216285722696Q1282.0572750805838 479.43216285722696 1288.839037509951 475.42605846857145Q1295.6494149706652 471.41995407991595 1295.6494149706652 463.57943549069023L1295.6494149706652 463.57943549069023Q1295.6494149706652 458.4287298481332 1292.873756929954 455.33830646259895Q1290.069483857895 452.24788307706467 1282.9729560837052 449.78699038117634Q1275.8764283095156 447.29748265394045 1263.5147347673787 444.6362847386193L1263.5147347673787 444.6362847386193Q1251.1530412252419 441.74616657251784 1243.9420533256618 437.511141933082Q1236.7310654260818 433.3047323249937 1233.6406420405478 427.41003586740067Q1230.5502186550134 421.5439544411551 1230.5502186550134 414.13266132214244L1230.5502186550134 414.13266132214244Q1230.5502186550134 406.52106298369705 1235.0713936079246 399.39592017815977Q1239.5925685608358 392.29939240397005 1248.3487681531828 387.7496024197113Q1257.1049677455298 383.22842746680016 1270.2964971967456 383.22842746680016L1270.2964971967456 383.22842746680016Q1281.0271339520725 383.22842746680016 1288.6387322905182 385.9182404134688Q1296.2503306289634 388.57943832878993 1301.2007310520878 392.614157748793Q1306.1511314752122 396.6202621374485 1308.6120241711003 400.5405214320613Q1311.1015318983364 404.4607807266742 1311.301837117769 407.1219786419954L1311.301837117769 407.1219786419954Q1311.5021423372018 409.18226089901816 1310.0713907698248 410.52716737235255Q1308.6120241711003 411.8720738456869 1306.780662164858 411.8720738456869L1306.780662164858 411.8720738456869L1298.1103076665536 411.8720738456869Q1296.6795560991766 411.8720738456869 1295.7352600647077 411.242543156041Q1294.8195790615866 410.64162749774266 1293.989743152508 409.81179158866405L1293.989743152508 409.81179158866405Q1291.9294608954851 407.1219786419954 1289.1538028547739 404.4607807266742Q1286.3781448140624 401.77096778000555 1281.9428149551939 400.02545086780566Q1277.5074850963254 398.27993395560577 1270.2964971967456 398.27993395560577L1270.2964971967456 398.27993395560577Q1259.9950859116313 398.27993395560577 1254.8443802690742 402.60080368908416Q1249.6936746265173 406.9216734225626 1249.6936746265173 413.5031306324966L1249.6936746265173 413.5031306324966Q1249.6936746265173 417.4233899271095 1251.9542621029727 420.5138133126437Q1254.2434646107758 423.60423669817794 1260.6246166012772 426.0937444254139Q1267.0057685917784 428.5546371213022 1279.567767353348 431.4447552874037L1279.567767353348 431.4447552874037Q1293.1599072434294 434.10595320272483 1301.000425832655 438.65574318698356Q1308.8409444218807 443.1769181398948 1312.131673026848 449.15745969153045Q1315.4224016318146 455.1380012431662 1315.4224016318146 462.94990480104434L1315.4224016318146 462.94990480104434Q1315.4224016318146 471.62025929934873 1310.4720012086905 478.8312471989286Q1305.5216007855663 486.0422350985085 1295.6494149706652 490.2486447065968Q1285.7486141244165 494.48366934603257 1271.326638325257 494.48366934603257ZM1395.3727992168394 492.4233870890098L1381.1511286371124 492.4233870890098Q1369.6192710040539 492.4233870890098 1362.408283104474 487.9880572301412Q1355.1972952048943 483.55272737127257 1351.8779515685799 475.42605846857145Q1348.5872229636127 467.29938956587034 1348.5872229636127 456.16814237167756L1348.5872229636127 456.16814237167756L1348.5872229636127 401.77096778000555L1332.5341903776432 401.77096778000555Q1330.4739081206205 401.77096778000555 1329.129001647286 400.42606130667116Q1327.7840951739518 399.0811548333369 1327.7840951739518 397.020872576314L1327.7840951739518 397.020872576314L1327.7840951739518 390.03880492751443Q1327.7840951739518 387.97852267049166 1329.129001647286 386.63361619715727Q1330.4739081206205 385.28870972382293 1332.5341903776432 385.28870972382293L1332.5341903776432 385.28870972382293L1348.5872229636127 385.28870972382293L1348.5872229636127 350.8934420440808Q1348.5872229636127 348.833159787058 1349.9321294369472 347.48825331372365Q1351.2770359102813 346.1433468403893 1353.3373181673044 346.1433468403893L1353.3373181673044 346.1433468403893L1363.0091987627723 346.1433468403893Q1365.0694810197954 346.1433468403893 1366.4143874931297 347.48825331372365Q1367.759293966464 348.833159787058 1367.759293966464 350.8934420440808L1367.759293966464 350.8934420440808L1367.759293966464 385.28870972382293L1393.3125169598165 385.28870972382293Q1395.5731044362722 385.28870972382293 1396.8035507842162 386.63361619715727Q1398.0339971321605 387.97852267049166 1398.0339971321605 390.03880492751443L1398.0339971321605 390.03880492751443L1398.0339971321605 397.020872576314Q1398.0339971321605 399.0811548333369 1396.8035507842162 400.42606130667116Q1395.5731044362722 401.77096778000555 1393.3125169598165 401.77096778000555L1393.3125169598165 401.77096778000555L1367.759293966464 401.77096778000555L1367.759293966464 454.70877577295306Q1367.759293966464 464.40927139976884 1371.050022571431 469.96058748119145Q1374.340751176398 475.5405185939616 1382.782185423922 475.5405185939616L1382.782185423922 475.5405185939616L1395.3727992168394 475.5405185939616Q1397.433081473862 475.5405185939616 1398.7493729158489 476.85681003594846Q1400.0942793891834 478.20171650928273 1400.0942793891834 480.2619987663056L1400.0942793891834 480.2619987663056L1400.0942793891834 487.67329188531824Q1400.0942793891834 489.73357414234107 1398.7493729158489 491.0784806156754Q1397.433081473862 492.4233870890098 1395.3727992168394 492.4233870890098L1395.3727992168394 492.4233870890098ZM1438.009195924673 492.4233870890098L1423.1866096866477 492.4233870890098Q1421.1263274296246 492.4233870890098 1419.7814209562905 491.0784806156754Q1418.436514482956 489.73357414234107 1418.436514482956 487.67329188531824L1418.436514482956 487.67329188531824L1418.436514482956 472.8507056472929Q1418.436514482956 470.7904233902701 1419.7814209562905 469.4455169169358Q1421.1263274296246 468.10061044360145 1423.1866096866477 468.10061044360145L1423.1866096866477 468.10061044360145L1438.009195924673 468.10061044360145Q1440.0694781816956 468.10061044360145 1441.5002297490726 469.4455169169358Q1442.959596347797 470.7904233902701 1442.959596347797 472.8507056472929L1442.959596347797 472.8507056472929L1442.959596347797 487.67329188531824Q1442.959596347797 489.73357414234107 1441.5002297490726 491.0784806156754Q1440.0694781816956 492.4233870890098 1438.009195924673 492.4233870890098L1438.009195924673 492.4233870890098ZM1486.4258289647091 492.4233870890098L1476.5250281184606 492.4233870890098Q1474.4647458614377 492.4233870890098 1473.1484544194511 491.0784806156754Q1471.8035479461166 489.73357414234107 1471.8035479461166 487.67329188531824L1471.8035479461166 487.67329188531824L1471.8035479461166 390.03880492751443Q1471.8035479461166 387.97852267049166 1473.1484544194511 386.63361619715727Q1474.4647458614377 385.28870972382293 1476.5250281184606 385.28870972382293L1476.5250281184606 385.28870972382293L1486.4258289647091 385.28870972382293Q1488.486111221732 385.28870972382293 1489.831017695066 386.63361619715727Q1491.1759241684006 387.97852267049166 1491.1759241684006 390.03880492751443L1491.1759241684006 390.03880492751443L1491.1759241684006 487.67329188531824Q1491.1759241684006 489.73357414234107 1489.831017695066 491.0784806156754Q1488.486111221732 492.4233870890098 1486.4258289647091 492.4233870890098L1486.4258289647091 492.4233870890098ZM1487.8565805320861 365.31541784324054L1474.8939713316508 365.31541784324054Q1472.833689074628 365.31541784324054 1471.4887826012935 363.97051136990626Q1470.1438761279594 362.6256048965719 1470.1438761279594 360.5653226395491L1470.1438761279594 360.5653226395491L1470.1438761279594 349.4340754453563Q1470.1438761279594 347.3737931883335 1471.4887826012935 345.94304162095654Q1472.833689074628 344.48367502223203 1474.8939713316508 344.48367502223203L1474.8939713316508 344.48367502223203L1487.8565805320861 344.48367502223203Q1489.9168627891088 344.48367502223203 1491.3762293878333 345.94304162095654Q1492.8069809552105 347.3737931883335 1492.8069809552105 349.4340754453563L1492.8069809552105 349.4340754453563L1492.8069809552105 360.5653226395491Q1492.8069809552105 362.6256048965719 1491.3762293878333 363.97051136990626Q1489.9168627891088 365.31541784324054 1487.8565805320861 365.31541784324054L1487.8565805320861 365.31541784324054ZM1565.546390640655 494.48366934603257L1565.546390640655 494.48366934603257Q1549.893968493551 494.48366934603257 1539.3636369576566 488.50312779439685Q1528.8619204531099 482.5225862427612 1523.3106043716873 471.9350246441717Q1517.730673258917 461.3188480142346 1517.1297576006186 447.7267081241535L1517.1297576006186 447.7267081241535Q1516.929452381186 444.20705926840617 1516.929452381186 438.74158828102617Q1516.929452381186 433.3047323249937 1517.1297576006186 429.9853886886792L1517.1297576006186 429.9853886886792Q1517.730673258917 416.1929435791653 1523.3964494657298 405.6912270746184Q1529.0622256725426 395.18951057007155 1539.5925572084373 389.2089690184358Q1550.0942737129837 383.22842746680016 1565.546390640655 383.22842746680016L1565.546390640655 383.22842746680016Q1580.998507568326 383.22842746680016 1591.5002240728732 389.2089690184358Q1602.00194057742 395.18951057007155 1607.6677167842329 405.6912270746184Q1613.3334929910454 416.1929435791653 1613.9630236806913 429.9853886886792L1613.9630236806913 429.9853886886792Q1614.163328900124 433.3047323249937 1614.163328900124 438.74158828102617Q1614.163328900124 444.20705926840617 1613.9630236806913 447.7267081241535L1613.9630236806913 447.7267081241535Q1613.3334929910454 461.3188480142346 1607.7821769096229 471.9350246441717Q1602.2022457968528 482.5225862427612 1591.7005292923059 488.50312779439685Q1581.198812787759 494.48366934603257 1565.546390640655 494.48366934603257ZM1565.546390640655 478.63094197949584L1565.546390640655 478.63094197949584Q1578.3086946216574 478.63094197949584 1585.9489079914504 470.4756580454472Q1593.560506329896 462.34898914274606 1594.190037019542 446.69656699564206L1594.190037019542 446.69656699564206Q1594.3903422389747 443.6061436101079 1594.3903422389747 438.85604840641633Q1594.3903422389747 434.10595320272483 1594.190037019542 431.0155298171906L1594.190037019542 431.0155298171906Q1593.560506329896 415.36310767008666 1585.9489079914504 407.2364387673855Q1578.3086946216574 399.0811548333369 1565.546390640655 399.0811548333369L1565.546390640655 399.0811548333369Q1552.755471628305 399.0811548333369 1545.0294131644694 407.2364387673855Q1537.303354700634 415.36310767008666 1536.9027442617685 431.0155298171906L1536.9027442617685 431.0155298171906Q1536.7024390423355 434.10595320272483 1536.7024390423355 438.85604840641633Q1536.7024390423355 443.6061436101079 1536.9027442617685 446.69656699564206L1536.9027442617685 446.69656699564206Q1537.303354700634 462.34898914274606 1545.0294131644694 470.4756580454472Q1552.755471628305 478.63094197949584 1565.546390640655 478.63094197949584Z " fill="#b88746" transform="matrix(0.5420765142188341,0,0,0.5420765142188341,0,72.60776800481774)"/></g></svg>